<svg width="12" height="22" viewBox="0 0 12 22" fill="none" xmlns="http://www.w3.org/2000/svg">
<path d="M11.826 14.798C11.826 15.9567 11.3567 16.9393 10.418 17.746C9.494 18.5527 8.31333 19.0293 6.876 19.176V21.64H5.05V19.176C3.65667 19.0147 2.51267 18.5673 1.618 17.834C0.723333 17.086 0.195333 16.14 0.034 14.996L2.476 14.49C2.72533 15.9127 3.58333 16.7487 5.05 16.998V12.114C4.346 11.9233 3.76667 11.74 3.312 11.564C2.872 11.3733 2.40267 11.1167 1.904 10.794C1.40533 10.4713 1.03133 10.0533 0.782 9.54C0.532667 9.02667 0.408 8.42533 0.408 7.736C0.408 6.62133 0.840667 5.668 1.706 4.876C2.586 4.06933 3.70067 3.58533 5.05 3.424V0.959999H6.876V3.424C8.196 3.58533 9.28133 4.04733 10.132 4.81C10.9827 5.558 11.4887 6.48933 11.65 7.604L9.208 8.11C8.944 6.746 8.16667 5.91 6.876 5.602V10.134C7.60933 10.3393 8.21067 10.53 8.68 10.706C9.14933 10.882 9.65533 11.146 10.198 11.498C10.7407 11.85 11.144 12.3047 11.408 12.862C11.6867 13.4047 11.826 14.05 11.826 14.798ZM3.488 6.284C3.10667 6.65067 2.916 7.09067 2.916 7.604C2.916 8.11733 3.09933 8.528 3.466 8.836C3.83267 9.144 4.36067 9.408 5.05 9.628V5.558C4.39 5.66067 3.86933 5.90267 3.488 6.284ZM6.876 12.62V17.042C7.63867 16.9393 8.23267 16.69 8.658 16.294C9.098 15.898 9.318 15.4213 9.318 14.864C9.318 14.292 9.10533 13.8373 8.68 13.5C8.26933 13.1627 7.668 12.8693 6.876 12.62Z" fill="#0CD68A"/>
<path d="M10.418 17.746L10.3528 17.6702L10.3522 17.6707L10.418 17.746ZM6.876 19.176L6.86585 19.0765L6.776 19.0857V19.176H6.876ZM6.876 21.64V21.74H6.976V21.64H6.876ZM5.05 21.64H4.95V21.74H5.05V21.64ZM5.05 19.176H5.15V19.0869L5.0615 19.0767L5.05 19.176ZM1.618 17.834L1.55385 17.9107L1.55461 17.9113L1.618 17.834ZM0.034 14.996L0.0137103 14.8981L-0.0781154 14.9171L-0.0650201 15.01L0.034 14.996ZM2.476 14.49L2.5745 14.4727L2.5567 14.3712L2.45571 14.3921L2.476 14.49ZM5.05 16.998L5.03324 17.0966L5.15 17.1164V16.998H5.05ZM5.05 12.114H5.15V12.0375L5.07614 12.0175L5.05 12.114ZM3.312 11.564L3.27221 11.6558L3.2759 11.6573L3.312 11.564ZM1.904 10.794L1.95833 10.71L1.904 10.794ZM0.782 9.54L0.692049 9.58369L0.782 9.54ZM1.706 4.876L1.77352 4.94977L1.77357 4.94972L1.706 4.876ZM5.05 3.424L5.06187 3.52329L5.15 3.51276V3.424H5.05ZM5.05 0.959999V0.859999H4.95V0.959999H5.05ZM6.876 0.959999H6.976V0.859999H6.876V0.959999ZM6.876 3.424H6.776V3.51252L6.86387 3.52326L6.876 3.424ZM10.132 4.81L10.0652 4.88446L10.066 4.8851L10.132 4.81ZM11.65 7.604L11.6703 7.70192L11.7625 7.68282L11.749 7.58967L11.65 7.604ZM9.208 8.11L9.10982 8.129L9.12908 8.22848L9.22829 8.20792L9.208 8.11ZM6.876 5.602L6.89921 5.50473L6.776 5.47533V5.602H6.876ZM6.876 10.134H6.776V10.2098L6.84904 10.2303L6.876 10.134ZM8.68 10.706L8.64489 10.7996L8.68 10.706ZM10.198 11.498L10.2524 11.4141L10.198 11.498ZM11.408 12.862L11.3176 12.9048L11.319 12.9077L11.408 12.862ZM3.488 6.284L3.55732 6.3561L3.55871 6.35471L3.488 6.284ZM5.05 9.628L5.0196 9.72327L5.15 9.76488V9.628H5.05ZM5.05 5.558H5.15V5.44124L5.03463 5.45919L5.05 5.558ZM6.876 12.62L6.90603 12.5246L6.776 12.4837V12.62H6.876ZM6.876 17.042H6.776V17.1564L6.88934 17.1411L6.876 17.042ZM8.658 16.294L8.59109 16.2197L8.58986 16.2208L8.658 16.294ZM8.68 13.5L8.61652 13.5773L8.61786 13.5784L8.68 13.5ZM11.726 14.798C11.726 15.9253 11.2711 16.881 10.3528 17.6702L10.4832 17.8218C11.4422 16.9976 11.926 15.988 11.926 14.798H11.726ZM10.3522 17.6707C9.44645 18.4614 8.28636 18.9316 6.86585 19.0765L6.88615 19.2755C8.34031 19.1271 9.54155 18.6439 10.4838 17.8213L10.3522 17.6707ZM6.776 19.176V21.64H6.976V19.176H6.776ZM6.876 21.54H5.05V21.74H6.876V21.54ZM5.15 21.64V19.176H4.95V21.64H5.15ZM5.0615 19.0767C3.68314 18.9171 2.55834 18.4755 1.68139 17.7567L1.55461 17.9113C2.46699 18.6592 3.6302 19.1123 5.0385 19.2753L5.0615 19.0767ZM1.68214 17.7573C0.806271 17.025 0.290861 16.1013 0.13302 14.982L-0.0650201 15.01C0.0998061 16.1787 0.640395 17.147 1.55386 17.9107L1.68214 17.7573ZM0.0542898 15.0939L2.49629 14.5879L2.45571 14.3921L0.0137103 14.8981L0.0542898 15.0939ZM2.3775 14.5073C2.50503 15.2349 2.78979 15.8202 3.23671 16.2556C3.68342 16.6909 4.28478 16.9693 5.03324 17.0966L5.06676 16.8994C4.34855 16.7773 3.78758 16.5131 3.37629 16.1124C2.96521 15.7118 2.6963 15.1677 2.5745 14.4727L2.3775 14.5073ZM5.15 16.998V12.114H4.95V16.998H5.15ZM5.07614 12.0175C4.37404 11.8273 3.79834 11.645 3.3481 11.4707L3.2759 11.6573C3.735 11.835 4.31796 12.0193 5.02386 12.2105L5.07614 12.0175ZM3.35176 11.4722C2.91785 11.2842 2.45341 11.0304 1.95833 10.71L1.84967 10.878C2.35193 11.2029 2.82615 11.4625 3.27224 11.6558L3.35176 11.4722ZM1.95833 10.71C1.47433 10.3969 1.11297 9.99253 0.871951 9.49631L0.692049 9.58369C0.949693 10.1141 1.33633 10.5458 1.84967 10.878L1.95833 10.71ZM0.871951 9.49631C0.630464 8.99913 0.508 8.4133 0.508 7.736H0.308C0.308 8.43737 0.434869 9.0542 0.692049 9.58369L0.871951 9.49631ZM0.508 7.736C0.508 6.65101 0.927656 5.72394 1.77352 4.94977L1.63848 4.80223C0.753677 5.61206 0.308 6.59166 0.308 7.736H0.508ZM1.77357 4.94972C2.63606 4.1591 3.73033 3.6825 5.06187 3.52329L5.03813 3.32471C3.671 3.48817 2.53594 3.97956 1.63843 4.80228L1.77357 4.94972ZM5.15 3.424V0.959999H4.95V3.424H5.15ZM5.05 1.06H6.876V0.859999H5.05V1.06ZM6.776 0.959999V3.424H6.976V0.959999H6.776ZM6.86387 3.52326C8.16698 3.68253 9.2322 4.13759 10.0652 4.88446L10.1988 4.73554C9.33046 3.95707 8.22502 3.48814 6.88813 3.32474L6.86387 3.52326ZM10.066 4.8851C10.8989 5.6175 11.3931 6.52733 11.551 7.61832L11.749 7.58967C11.5842 6.45133 11.0664 5.4985 10.198 4.7349L10.066 4.8851ZM11.6297 7.50608L9.18771 8.01208L9.22829 8.20792L11.6703 7.70192L11.6297 7.50608ZM9.30618 8.091C9.1714 7.39462 8.90416 6.82632 8.50023 6.3919C8.09606 5.95723 7.56054 5.66255 6.89921 5.50473L6.85279 5.69927C7.48213 5.84945 7.98061 6.12677 8.35377 6.52809C8.72717 6.92968 8.9806 7.46137 9.10982 8.129L9.30618 8.091ZM6.776 5.602V10.134H6.976V5.602H6.776ZM6.84904 10.2303C7.58087 10.4352 8.17922 10.625 8.64489 10.7996L8.71511 10.6124C8.24211 10.435 7.6378 10.2435 6.90296 10.0377L6.84904 10.2303ZM8.64489 10.7996C9.10583 10.9725 9.60533 11.2328 10.1436 11.5819L10.2524 11.4141C9.70534 11.0592 9.19284 10.7915 8.71511 10.6124L8.64489 10.7996ZM10.1436 11.5819C10.6715 11.9243 11.062 12.3651 11.3176 12.9048L11.4984 12.8192C11.226 12.2443 10.8099 11.7757 10.2524 11.4141L10.1436 11.5819ZM11.319 12.9077C11.589 13.4334 11.726 14.0623 11.726 14.798H11.926C11.926 14.0377 11.7843 13.376 11.497 12.8163L11.319 12.9077ZM3.41869 6.21192C3.01842 6.59679 2.816 7.06254 2.816 7.604H3.016C3.016 7.11879 3.19491 6.70454 3.55731 6.35608L3.41869 6.21192ZM2.816 7.604C2.816 8.14445 3.0106 8.58406 3.40168 8.91257L3.53032 8.75943C3.18806 8.47193 3.016 8.09021 3.016 7.604H2.816ZM3.40168 8.91257C3.78208 9.2321 4.32357 9.50113 5.0196 9.72327L5.0804 9.53273C4.39776 9.31487 3.88326 9.0559 3.53032 8.75943L3.40168 8.91257ZM5.15 9.628V5.558H4.95V9.628H5.15ZM5.03463 5.45919C4.35874 5.56433 3.81689 5.81369 3.41729 6.21329L3.55871 6.35471C3.92178 5.99164 4.42126 5.75701 5.06537 5.65681L5.03463 5.45919ZM6.776 12.62V17.042H6.976V12.62H6.776ZM6.88934 17.1411C7.66594 17.0366 8.28144 16.7812 8.72614 16.3672L8.58986 16.2208C8.18389 16.5988 7.61139 16.8421 6.86266 16.9429L6.88934 17.1411ZM8.7249 16.3683C9.18449 15.9547 9.418 15.4516 9.418 14.864H9.218C9.218 15.3911 9.01151 15.8413 8.5911 16.2197L8.7249 16.3683ZM9.418 14.864C9.418 14.2634 9.19284 13.7791 8.74214 13.4216L8.61786 13.5784C9.01783 13.8956 9.218 14.3206 9.218 14.864H9.418ZM8.74347 13.4227C8.31895 13.074 7.70413 12.7759 6.90603 12.5246L6.84597 12.7154C7.63187 12.9628 8.21972 13.2513 8.61653 13.5773L8.74347 13.4227Z" fill="#0CD68A"/>
</svg>
